#N canvas -7 0 1920 997 10;
#X obj 1066 447 *~;
#X obj 1057 546 dac~;
#X obj 1163 337 vline~;
#X floatatom 1026 107 5 0 0 0 - - - 0;
#X obj 1026 74 r osctrig;
#X text 1523 21 Trigger noise burst when running into a wall;
#X text 427 25 Sequence playback: more notes are added to the sequence as more pickups are collected.;
#X obj 540 183 f;
#X obj 572 182 + 1;
#X obj 601 210 mod;
#X floatatom 639 184 5 0 0 0 - - - 0;
#X obj 513 244 select 0 1 2 3 4 5 6 7 8 9 10 11;
#X obj 637 132 loadbang;
#X msg 430 281 100;
#X floatatom 607 342 5 0 0 0 - - - 0;
#X msg 463 280 200;
#X msg 495 280 300;
#X obj 732 632 hsl 162 19 0 1 0 0 empty empty empty -2 -10 0 12 #fcfcfc #000000 #000000 0 1;
#X floatatom 729 685 5 0 0 0 - - - 0;
#X text 727 613 Slider Used to Increase/Decrease Audio Volume;
#X obj 729 561 vline~;
#X text 166 126 1 Set IP Address : network address;
#X text 166 146 2 Set Ports (sending and listening);
#X text 166 165 3 Set OSC Addresses (routing osc data;
#X text 157 104 Key Settings;
#X floatatom 43 194 5 0 0 0 - - - 0;
#N canvas 1099 23 623 462 oscReceive 0;
#X obj 55 184 netreceive -u -b;
#X msg 78 143 listen 0;
#X text 152 143 stop listening;
#X text 64 58 packets from network;
#X text 173 177 UDP packets \, binary output, f 13;
#X obj 45 314 print;
#X obj 45 272 oscparse;
#X text 150 114 listen on port 8000;
#X obj 177 269 oscparse;
#X obj 177 293 list trim;
#X floatatom 140 380 5 0 0 0 - - - 0;
#X text 241 267 Parse the OSC message;
#X obj 177 319 route unity;
#X obj 139 357 route trigger;
#X obj 140 407 s osctrig;
#X msg 66 115 listen 8000;
#X obj 66 84 loadbang;
#X floatatom 244 382 5 0 0 0 - - - 0;
#X floatatom 339 382 5 0 0 0 - - - 0;
#X obj 338 359 route playseq;
#X obj 339 409 s oscplayseq;
#X floatatom 437 382 5 0 0 0 - - - 0;
#X obj 436 359 route colwall;
#X obj 437 409 s oscwall;
#X obj 243 359 route addnote;
#X obj 244 409 s oscaddnote;
#X connect 0 0 6 0;
#X connect 0 0 8 0;
#X connect 1 0 0 0;
#X connect 6 0 5 0;
#X connect 8 0 9 0;
#X connect 9 0 12 0;
#X connect 10 0 14 0;
#X connect 12 0 13 0;
#X connect 12 0 19 0;
#X connect 12 0 22 0;
#X connect 12 0 24 0;
#X connect 13 0 10 0;
#X connect 15 0 0 0;
#X connect 16 0 15 0;
#X connect 17 0 25 0;
#X connect 18 0 20 0;
#X connect 19 0 18 0;
#X connect 21 0 23 0;
#X connect 22 0 21 0;
#X connect 24 0 17 0;
#X restore 42 142 pd oscReceive;
#X obj 43 36 tgl 15 0 empty empty empty 17 7 0 10 #fcfcfc #000000 #000000 0 1;
#X msg 43 61 \; pd dsp \$1;
#X obj 44 278 oscformat PD message;
#X msg 76 239 set PD message;
#N canvas 727 97 450 300 oscSend 0;
#X msg 158 207 disconnect;
#X obj 61 253 netsend -u -b;
#X obj 59 55 list prepend send;
#X obj 59 80 list trim;
#X msg 150 175 connect 127.0.0.1 8001;
#X obj 59 29 r oscOut;
#X text 301 163 send to port 8001;
#X msg 147 148 connect localhost 8001;
#X obj 147 108 loadbang;
#X connect 0 0 1 0;
#X connect 2 0 3 0;
#X connect 3 0 1 0;
#X connect 4 0 1 0;
#X connect 5 0 2 0;
#X connect 7 0 1 0;
#X connect 8 0 7 0;
#X restore 42 118 pd oscSend;
#X obj 44 313 s oscOut;
#X msg 729 517 1 25 \, 0 200 75;
#X obj 540 75 r oscplayseq;
#X obj 578 635 *~;
#X msg 776 669 0.5;
#X obj 812 669 loadbang;
#X obj 578 669 *~;
#X obj 568 713 dac~;
#X obj 702 132 r oscaddnote;
#X obj 540 146 metro 500;
#X msg 525 280 400;
#X msg 557 280 500;
#X msg 588 280 600;
#X msg 648 280 800;
#X msg 677 280 900;
#X msg 706 280 1000;
#X msg 769 280 1200;
#X obj 567 435 phasor~;
#X obj 642 434 phasor~;
#X obj 642 395 * -1;
#X obj 578 576 +~;
#X obj 642 467 *~ 2;
#X obj 567 468 *~ 2;
#X obj 567 495 -~ 1;
#X obj 641 496 -~ 1;
#X obj 569 527 clip~ 0 1;
#X obj 641 527 clip~ 0 1;
#X text 38 7 Toggle to Enable/Disable DSP;
#X text 179 238 Set message to change OSC address;
#X text 177 277 Creation arguments are OSC address;
#X msg 681 341 0;
#X obj 714 341 loadbang;
#X msg 637 160 4;
#X floatatom 1060 254 5 0 0 0 - - - 0;
#X msg 1060 192 500;
#X obj 1026 143 select 0 1 2;
#X obj 1185 435 hsl 162 19 0 1 0 0 empty empty empty -2 -10 0 12 #fcfcfc #000000 #000000 0 1;
#X floatatom 1182 488 5 0 0 0 - - - 0;
#X text 1180 416 Slider Used to Increase/Decrease Audio Volume;
#X msg 1229 472 0.5;
#X obj 1265 472 loadbang;
#X obj 1067 503 *~;
#X msg 619 280 750;
#X msg 737 280 1050;
#X obj 1553 285 *~;
#X obj 1595 146 osc~;
#X obj 1595 179 *~;
#X obj 1548 231 *~;
#X obj 1515 171 osc~;
#X obj 1687 196 vline~;
#X obj 1607 69 bng 15 250 50 0 empty empty empty 17 7 0 10 #fcfcfc #000000 #000000;
#X obj 1606 40 r oscwall;
#X msg 1687 144 1 25 \, 0 750 75;
#X text 1022 21 Trigger when picking up rotating cube. Changes frequency depending upon the color of the pickup.;
#X msg 1021 192 200;
#X msg 1101 192 750;
#X obj 540 109 tgl 15 0 empty empty empty 17 7 0 10 #fcfcfc #000000 #000000 0 1;
#X obj 1547 383 dac~;
#X obj 1554 334 *~;
#X obj 1627 278 hsl 162 19 0 1 0 0 empty empty empty -2 -10 0 12 #fcfcfc #000000 #000000 0 1;
#X floatatom 1624 331 5 0 0 0 - - - 0;
#X text 1622 259 Slider Used to Increase/Decrease Audio Volume;
#X msg 1671 315 0.5;
#X obj 1707 315 loadbang;
#X obj 1061 319 osc~;
#X obj 1012 430 osc~;
#X floatatom 1012 294 5 0 0 0 - - - 0;
#X obj 1061 352 *~;
#X obj 1012 367 +~;
#X msg 1163 292 1 200 \, 0 600 600;
#X msg 1596 105 40;
#X msg 1512 126 180;
#X msg 1061 289 20;
#X obj 1969 43 r oscmove;
#X obj 2115 406 hsl 162 19 0 1 0 0 empty empty empty -2 -10 0 12 #fcfcfc #000000 #000000 0 1;
#X floatatom 2112 459 5 0 0 0 - - - 0;
#X text 2097 384 Slider Used to Increase/Decrease Audio Volume;
#X obj 2195 443 loadbang;
#X obj 1986 381 *~;
#X obj 1976 425 dac~;
#X msg 2159 443 0.1;
#X obj 1985 299 osc~;
#X floatatom 1993 220 5 0 0 0 - - - 0;
#X msg 1954 158 0;
#X obj 1959 109 select 0 1 2 3;
#X msg 1993 158 50;
#X msg 2034 158 75;
#X msg 2074 158 100;
#X text 1912 14 Movement Noise: Produces noise based on the current speed of the player.;
#X connect 0 0 73 0;
#X connect 2 0 0 1;
#X connect 2 0 99 1;
#X connect 3 0 67 0;
#X connect 4 0 3 0;
#X connect 7 0 8 0;
#X connect 7 0 9 0;
#X connect 8 0 7 1;
#X connect 9 0 11 0;
#X connect 10 0 9 1;
#X connect 11 0 13 0;
#X connect 11 1 15 0;
#X connect 11 2 16 0;
#X connect 11 3 42 0;
#X connect 11 4 43 0;
#X connect 11 5 44 0;
#X connect 11 6 74 0;
#X connect 11 7 45 0;
#X connect 11 8 46 0;
#X connect 11 9 47 0;
#X connect 11 10 75 0;
#X connect 11 11 48 0;
#X connect 12 0 64 0;
#X connect 13 0 14 0;
#X connect 14 0 49 0;
#X connect 14 0 51 0;
#X connect 15 0 14 0;
#X connect 16 0 14 0;
#X connect 17 0 18 0;
#X connect 18 0 38 1;
#X connect 20 0 35 1;
#X connect 25 0 29 0;
#X connect 27 0 28 0;
#X connect 29 0 32 0;
#X connect 30 0 29 0;
#X connect 33 0 20 0;
#X connect 34 0 88 0;
#X connect 35 0 38 0;
#X connect 36 0 18 0;
#X connect 37 0 36 0;
#X connect 38 0 39 0;
#X connect 38 0 39 1;
#X connect 40 0 10 0;
#X connect 41 0 7 0;
#X connect 41 0 33 0;
#X connect 42 0 14 0;
#X connect 43 0 14 0;
#X connect 44 0 14 0;
#X connect 45 0 14 0;
#X connect 46 0 14 0;
#X connect 47 0 14 0;
#X connect 48 0 14 0;
#X connect 49 0 54 0;
#X connect 50 0 53 0;
#X connect 51 0 50 0;
#X connect 52 0 35 0;
#X connect 53 0 56 0;
#X connect 54 0 55 0;
#X connect 55 0 57 0;
#X connect 56 0 58 0;
#X connect 57 0 52 0;
#X connect 58 0 52 1;
#X connect 62 0 49 1;
#X connect 62 0 50 1;
#X connect 63 0 62 0;
#X connect 64 0 10 0;
#X connect 65 0 98 0;
#X connect 65 0 101 0;
#X connect 66 0 65 0;
#X connect 67 0 86 0;
#X connect 67 1 66 0;
#X connect 67 2 87 0;
#X connect 68 0 69 0;
#X connect 69 0 73 1;
#X connect 71 0 69 0;
#X connect 72 0 71 0;
#X connect 73 0 1 1;
#X connect 73 0 1 0;
#X connect 74 0 14 0;
#X connect 75 0 14 0;
#X connect 76 0 90 0;
#X connect 77 0 78 0;
#X connect 78 0 79 1;
#X connect 79 0 76 0;
#X connect 80 0 79 0;
#X connect 81 0 76 1;
#X connect 81 0 78 1;
#X connect 82 0 84 0;
#X connect 82 0 103 0;
#X connect 82 0 102 0;
#X connect 83 0 82 0;
#X connect 84 0 81 0;
#X connect 86 0 65 0;
#X connect 87 0 65 0;
#X connect 88 0 41 0;
#X connect 90 0 89 0;
#X connect 90 0 89 1;
#X connect 91 0 92 0;
#X connect 92 0 90 1;
#X connect 94 0 92 0;
#X connect 95 0 94 0;
#X connect 96 0 99 0;
#X connect 97 0 0 0;
#X connect 98 0 100 0;
#X connect 99 0 100 1;
#X connect 100 0 97 0;
#X connect 101 0 2 0;
#X connect 102 0 77 0;
#X connect 103 0 80 0;
#X connect 104 0 96 0;
#X connect 105 0 116 0;
#X connect 106 0 107 0;
#X connect 107 0 110 1;
#X connect 109 0 112 0;
#X connect 110 0 111 0;
#X connect 110 0 111 1;
#X connect 112 0 107 0;
#X connect 113 0 110 0;
#X connect 114 0 113 0;
#X connect 115 0 114 0;
#X connect 116 0 115 0;
#X connect 116 1 117 0;
#X connect 116 2 118 0;
#X connect 116 3 119 0;
#X connect 117 0 114 0;
#X connect 118 0 114 0;
#X connect 119 0 114 0;
