#N canvas 1902 48 1920 997 10;
#X obj 1066 447 *~;
#X obj 1057 546 dac~;
#X obj 1163 337 vline~;
#X floatatom 1026 107 5 0 0 0 - - - 0;
#X obj 1025 74 r osctrig;
#X text 1523 21 Trigger noise burst when running into a wall;
#X text 427 25 Sequence playback: more notes are added to the sequence as more pickups are collected.;
#X obj 540 183 f;
#X obj 572 182 + 1;
#X obj 601 210 mod;
#X floatatom 639 184 5 0 0 0 - - - 0;
#X obj 513 244 select 0 1 2 3 4 5 6 7 8 9 10 11;
#X obj 637 132 loadbang;
#X msg 430 281 100;
#X floatatom 607 342 5 0 0 0 - - - 0;
#X msg 463 280 200;
#X msg 495 280 300;
#X obj 732 632 hsl 162 19 0 1 0 0 empty empty empty -2 -10 0 12 #fcfcfc #000000 #000000 0 1;
#X floatatom 729 685 5 0 0 0 - - - 0;
#X text 727 613 Slider Used to Increase/Decrease Audio Volume;
#X obj 729 561 vline~;
#X text 166 126 1 Set IP Address : network address;
#X text 166 146 2 Set Ports (sending and listening);
#X text 166 165 3 Set OSC Addresses (routing osc data;
#X text 157 104 Key Settings;
#X floatatom 43 194 5 0 0 0 - - - 0;
#N canvas 2306 203 623 462 oscReceive 0;
#X obj 55 184 netreceive -u -b;
#X msg 78 143 listen 0;
#X text 152 143 stop listening;
#X text 64 58 packets from network;
#X text 173 177 UDP packets \, binary output, f 13;
#X obj 45 314 print;
#X obj 45 272 oscparse;
#X text 150 114 listen on port 8000;
#X obj 177 269 oscparse;
#X obj 177 293 list trim;
#X floatatom 140 380 5 0 0 0 - - - 0;
#X text 241 267 Parse the OSC message;
#X obj 177 319 route unity;
#X obj 139 357 route trigger;
#X obj 140 407 s osctrig;
#X msg 66 115 listen 8000;
#X obj 66 84 loadbang;
#X floatatom 244 382 5 0 0 0 - - - 0;
#X floatatom 339 382 5 0 0 0 - - - 0;
#X obj 338 359 route playseq;
#X obj 339 409 s oscplayseq;
#X floatatom 437 382 5 0 0 0 - - - 0;
#X obj 436 359 route colwall;
#X obj 437 409 s oscwall;
#X obj 243 359 route addnote;
#X obj 244 409 s oscaddnote;
#X floatatom 527 383 5 0 0 0 - - - 0;
#X obj 526 360 route speed;
#X obj 527 410 s oscmove;
#X connect 0 0 6 0;
#X connect 0 0 8 0;
#X connect 1 0 0 0;
#X connect 6 0 5 0;
#X connect 8 0 9 0;
#X connect 9 0 12 0;
#X connect 10 0 14 0;
#X connect 12 0 13 0;
#X connect 12 0 19 0;
#X connect 12 0 22 0;
#X connect 12 0 24 0;
#X connect 12 0 27 0;
#X connect 13 0 10 0;
#X connect 15 0 0 0;
#X connect 16 0 15 0;
#X connect 17 0 25 0;
#X connect 18 0 20 0;
#X connect 19 0 18 0;
#X connect 21 0 23 0;
#X connect 22 0 21 0;
#X connect 24 0 17 0;
#X connect 26 0 28 0;
#X connect 27 0 26 0;
#X restore 42 142 pd oscReceive;
#X obj 43 36 tgl 15 0 empty empty empty 17 7 0 10 #fcfcfc #000000 #000000 0 1;
#X msg 43 61 \; pd dsp \$1;
#X obj 44 278 oscformat PD message;
#X msg 76 239 set PD message;
#N canvas 727 97 450 300 oscSend 0;
#X msg 158 207 disconnect;
#X obj 61 253 netsend -u -b;
#X obj 59 55 list prepend send;
#X obj 59 80 list trim;
#X msg 150 175 connect 127.0.0.1 8001;
#X obj 59 29 r oscOut;
#X text 301 163 send to port 8001;
#X msg 147 148 connect localhost 8001;
#X obj 147 108 loadbang;
#X connect 0 0 1 0;
#X connect 2 0 3 0;
#X connect 3 0 1 0;
#X connect 4 0 1 0;
#X connect 5 0 2 0;
#X connect 7 0 1 0;
#X connect 8 0 7 0;
#X restore 42 118 pd oscSend;
#X obj 44 313 s oscOut;
#X msg 729 517 1 25 \, 0 200 75;
#X obj 540 75 r oscplayseq;
#X obj 578 635 *~;
#X obj 812 669 loadbang;
#X obj 578 669 *~;
#X obj 568 713 dac~;
#X obj 702 132 r oscaddnote;
#X obj 540 146 metro 500;
#X msg 525 280 400;
#X msg 557 280 500;
#X msg 588 280 600;
#X msg 648 280 800;
#X msg 677 280 900;
#X msg 706 280 1000;
#X msg 769 280 1200;
#X obj 567 435 phasor~;
#X obj 642 434 phasor~;
#X obj 642 395 * -1;
#X obj 578 576 +~;
#X obj 642 467 *~ 2;
#X obj 567 468 *~ 2;
#X obj 567 495 -~ 1;
#X obj 641 496 -~ 1;
#X obj 569 527 clip~ 0 1;
#X obj 641 527 clip~ 0 1;
#X text 38 7 Toggle to Enable/Disable DSP;
#X text 179 238 Set message to change OSC address;
#X text 177 277 Creation arguments are OSC address;
#X msg 681 341 0;
#X obj 714 341 loadbang;
#X msg 637 160 4;
#X floatatom 1060 254 5 0 0 0 - - - 0;
#X msg 1060 192 500;
#X obj 1026 143 select 0 1 2;
#X obj 1185 435 hsl 162 19 0 1 0 0 empty empty empty -2 -10 0 12 #fcfcfc #000000 #000000 0 1;
#X floatatom 1182 488 5 0 0 0 - - - 0;
#X text 1180 416 Slider Used to Increase/Decrease Audio Volume;
#X obj 1265 472 loadbang;
#X obj 1067 503 *~;
#X msg 619 280 750;
#X msg 737 280 1050;
#X obj 1553 285 *~;
#X obj 1595 146 osc~;
#X obj 1595 179 *~;
#X obj 1548 231 *~;
#X obj 1515 171 osc~;
#X obj 1687 196 vline~;
#X obj 1607 69 bng 15 250 50 0 empty empty empty 17 7 0 10 #fcfcfc #000000 #000000;
#X obj 1606 40 r oscwall;
#X msg 1687 144 1 25 \, 0 750 75;
#X text 1022 21 Trigger when picking up rotating cube. Changes frequency depending upon the color of the pickup.;
#X msg 1021 192 200;
#X msg 1101 192 750;
#X obj 540 109 tgl 15 0 empty empty empty 17 7 0 10 #fcfcfc #000000 #000000 0 1;
#X obj 1544 432 dac~;
#X obj 1554 334 *~;
#X obj 1627 278 hsl 162 19 0 1 0 0 empty empty empty -2 -10 0 12 #fcfcfc #000000 #000000 0 1;
#X floatatom 1624 331 5 0 0 0 - - - 0;
#X text 1622 259 Slider Used to Increase/Decrease Audio Volume;
#X obj 1707 315 loadbang;
#X obj 1061 319 osc~;
#X obj 1012 430 osc~;
#X floatatom 1012 294 5 0 0 0 - - - 0;
#X obj 1061 352 *~;
#X obj 1012 367 +~;
#X msg 1163 292 1 200 \, 0 600 600;
#X msg 1596 105 40;
#X msg 1512 126 180;
#X msg 1061 289 20;
#X obj 2121 390 dac~;
#X obj 2129 357 *~;
#X obj 2238 367 hsl 162 19 0 1 0 0 empty empty empty -2 -10 0 12 #fcfcfc #000000 #000000 0 1;
#X floatatom 2235 420 5 0 0 0 - - - 0;
#X text 2233 348 Slider Used to Increase/Decrease Audio Volume;
#X obj 2318 404 loadbang;
#X floatatom 2188 100 5 0 0 0 - - - 0;
#X msg 1951 211 0;
#X obj 2186 51 r oscmove;
#X obj 2119 139 select 0 1 2 3 4 5 6 7 8 9 10 11 12 13;
#X msg 1990 211 80;
#X msg 2031 211 85;
#X msg 2075 211 90;
#X msg 2113 211 95;
#X msg 2152 211 100;
#X msg 2193 211 105;
#X msg 2237 211 110;
#X msg 2280 211 115;
#X msg 2324 211 120;
#X msg 2362 211 125;
#X msg 2400 211 130;
#X msg 2444 211 135;
#X msg 2482 211 140;
#X floatatom 2054 286 5 0 0 0 - - - 0;
#X obj 2128 320 osc~;
#N canvas 2610 257 760 420 hitReverb 0;
#X obj 162 49 inlet~;
#X obj 144 364 outlet~;
#X floatatom 444 156 0 0 120 0 - - - 0;
#X text 485 156 level \, dB;
#X floatatom 472 173 0 0 100 0 - - - 0;
#X text 513 173 liveness \, 0-100;
#X floatatom 507 197 4 0 5000 0 - - - 0;
#X floatatom 542 220 0 0 100 0 - - - 0;
#X text 555 195 crossover frequency \, Hz.;
#X text 578 222 HF damping \, percent;
#X obj 235 233 rev3~ 100 90 3000 20;
#X obj 247 331 *~;
#X floatatom 317 299 5 0 0 0 - - - 0;
#X obj 26 288 *~;
#X floatatom 66 261 5 0 0 0 - - - 0;
#X text 355 299 wet reverb signal;
#X text 103 264 "dry" signal;
#X floatatom 411 59 5 0 0 0 - - - 0;
#X obj 250 87 expr 1 - $f1;
#X obj 447 22 loadbang;
#X msg 411 21 0.2;
#X connect 0 0 13 0;
#X connect 0 0 10 0;
#X connect 2 0 10 2;
#X connect 4 0 10 3;
#X connect 6 0 10 4;
#X connect 7 0 10 5;
#X connect 10 0 11 0;
#X connect 10 1 11 0;
#X connect 10 2 11 0;
#X connect 10 3 11 0;
#X connect 11 0 1 0;
#X connect 12 0 11 1;
#X connect 13 0 1 0;
#X connect 14 0 13 1;
#X connect 17 0 12 0;
#X connect 17 0 18 0;
#X connect 18 0 14 0;
#X connect 19 0 20 0;
#X connect 20 0 17 0;
#X restore 1550 385 pd hitReverb;
#X obj 2115 596 dac~;
#X obj 2123 532 *~;
#X obj 2233 547 hsl 162 19 0 1 0 0 empty empty empty -2 -10 0 12 #fcfcfc #000000 #000000 0 1;
#X floatatom 2230 600 5 0 0 0 - - - 0;
#X text 2228 528 Slider Used to Increase/Decrease Audio Volume;
#X obj 2313 584 loadbang;
#X obj 2123 500 osc~;
#X floatatom 2054 424 5 0 0 0 - - - 0;
#X obj 2054 373 /;
#X msg 2282 404 0.04;
#X msg 2277 584 0.02;
#X floatatom 2070 341 5 0 0 0 - - - 0;
#X text 2049 22 Creates drone with movement of the player according to the speed. Frequencies get higher as the player gets faster.;
#N canvas 2418 313 760 425 rollReverb 0;
#X obj 162 49 inlet~;
#X obj 144 364 outlet~;
#X floatatom 444 156 0 0 120 0 - - - 0;
#X text 485 156 level \, dB;
#X floatatom 472 173 0 0 100 0 - - - 0;
#X text 513 173 liveness \, 0-100;
#X floatatom 507 197 4 0 5000 0 - - - 0;
#X floatatom 542 220 0 0 100 0 - - - 0;
#X text 555 195 crossover frequency \, Hz.;
#X text 578 222 HF damping \, percent;
#X obj 235 233 rev3~ 100 90 3000 20;
#X obj 247 331 *~;
#X floatatom 317 299 5 0 0 0 - - - 0;
#X obj 26 288 *~;
#X floatatom 66 261 5 0 0 0 - - - 0;
#X text 355 299 wet reverb signal;
#X text 103 264 "dry" signal;
#X floatatom 410 59 5 0 0 0 - - - 0;
#X obj 250 87 expr 1 - $f1;
#X obj 445 27 loadbang;
#X msg 410 27 0.1;
#X connect 0 0 13 0;
#X connect 0 0 10 0;
#X connect 2 0 10 2;
#X connect 4 0 10 3;
#X connect 6 0 10 4;
#X connect 7 0 10 5;
#X connect 10 0 11 0;
#X connect 10 1 11 0;
#X connect 10 2 11 0;
#X connect 10 3 11 0;
#X connect 11 0 1 0;
#X connect 12 0 11 1;
#X connect 13 0 1 0;
#X connect 14 0 13 1;
#X connect 17 0 12 0;
#X connect 17 0 18 0;
#X connect 18 0 14 0;
#X connect 19 0 20 0;
#X connect 20 0 17 0;
#X restore 2123 565 pd rollReverb;
#X text 2048 638 Two voices are used to give the sound depth which in turn leads to a more satisfying feedback to maintaining movement.;
#X msg 776 669 0.4;
#X msg 1229 472 0.4;
#X msg 1671 315 0.4;
#X connect 0 0 71 0;
#X connect 2 0 0 1;
#X connect 2 0 96 1;
#X connect 3 0 66 0;
#X connect 4 0 3 0;
#X connect 7 0 8 0;
#X connect 7 0 9 0;
#X connect 8 0 7 1;
#X connect 9 0 11 0;
#X connect 10 0 9 1;
#X connect 11 0 13 0;
#X connect 11 1 15 0;
#X connect 11 2 16 0;
#X connect 11 3 41 0;
#X connect 11 4 42 0;
#X connect 11 5 43 0;
#X connect 11 6 72 0;
#X connect 11 7 44 0;
#X connect 11 8 45 0;
#X connect 11 9 46 0;
#X connect 11 10 73 0;
#X connect 11 11 47 0;
#X connect 12 0 63 0;
#X connect 13 0 14 0;
#X connect 14 0 48 0;
#X connect 14 0 50 0;
#X connect 15 0 14 0;
#X connect 16 0 14 0;
#X connect 17 0 18 0;
#X connect 18 0 37 1;
#X connect 20 0 35 1;
#X connect 25 0 29 0;
#X connect 27 0 28 0;
#X connect 29 0 32 0;
#X connect 30 0 29 0;
#X connect 33 0 20 0;
#X connect 34 0 86 0;
#X connect 35 0 37 0;
#X connect 36 0 143 0;
#X connect 37 0 38 0;
#X connect 37 0 38 1;
#X connect 39 0 10 0;
#X connect 40 0 7 0;
#X connect 40 0 33 0;
#X connect 41 0 14 0;
#X connect 42 0 14 0;
#X connect 43 0 14 0;
#X connect 44 0 14 0;
#X connect 45 0 14 0;
#X connect 46 0 14 0;
#X connect 47 0 14 0;
#X connect 48 0 53 0;
#X connect 49 0 52 0;
#X connect 50 0 49 0;
#X connect 51 0 35 0;
#X connect 52 0 55 0;
#X connect 53 0 54 0;
#X connect 54 0 56 0;
#X connect 55 0 57 0;
#X connect 56 0 51 0;
#X connect 57 0 51 1;
#X connect 61 0 48 1;
#X connect 61 0 49 1;
#X connect 62 0 61 0;
#X connect 63 0 10 0;
#X connect 64 0 95 0;
#X connect 64 0 98 0;
#X connect 65 0 64 0;
#X connect 66 0 84 0;
#X connect 66 1 65 0;
#X connect 66 2 85 0;
#X connect 67 0 68 0;
#X connect 68 0 71 1;
#X connect 70 0 144 0;
#X connect 71 0 1 1;
#X connect 71 0 1 0;
#X connect 72 0 14 0;
#X connect 73 0 14 0;
#X connect 74 0 88 0;
#X connect 75 0 76 0;
#X connect 76 0 77 1;
#X connect 77 0 74 0;
#X connect 78 0 77 0;
#X connect 79 0 74 1;
#X connect 79 0 76 1;
#X connect 80 0 82 0;
#X connect 80 0 100 0;
#X connect 80 0 99 0;
#X connect 81 0 80 0;
#X connect 82 0 79 0;
#X connect 84 0 64 0;
#X connect 85 0 64 0;
#X connect 86 0 40 0;
#X connect 88 0 127 0;
#X connect 89 0 90 0;
#X connect 90 0 88 1;
#X connect 92 0 145 0;
#X connect 93 0 96 0;
#X connect 94 0 0 0;
#X connect 95 0 97 0;
#X connect 96 0 97 1;
#X connect 97 0 94 0;
#X connect 98 0 2 0;
#X connect 99 0 75 0;
#X connect 100 0 78 0;
#X connect 101 0 93 0;
#X connect 103 0 102 0;
#X connect 103 0 102 1;
#X connect 104 0 105 0;
#X connect 105 0 103 1;
#X connect 107 0 137 0;
#X connect 108 0 111 0;
#X connect 109 0 125 0;
#X connect 110 0 108 0;
#X connect 111 0 109 0;
#X connect 111 1 112 0;
#X connect 111 2 113 0;
#X connect 111 3 114 0;
#X connect 111 4 115 0;
#X connect 111 5 116 0;
#X connect 111 6 117 0;
#X connect 111 7 118 0;
#X connect 111 8 119 0;
#X connect 111 9 120 0;
#X connect 111 10 121 0;
#X connect 111 11 122 0;
#X connect 111 12 123 0;
#X connect 111 13 124 0;
#X connect 112 0 125 0;
#X connect 113 0 125 0;
#X connect 114 0 125 0;
#X connect 115 0 125 0;
#X connect 116 0 125 0;
#X connect 117 0 125 0;
#X connect 118 0 125 0;
#X connect 119 0 125 0;
#X connect 120 0 125 0;
#X connect 121 0 125 0;
#X connect 122 0 125 0;
#X connect 123 0 125 0;
#X connect 124 0 125 0;
#X connect 125 0 126 0;
#X connect 125 0 136 0;
#X connect 126 0 103 0;
#X connect 127 0 87 0;
#X connect 127 0 87 1;
#X connect 129 0 141 0;
#X connect 130 0 131 0;
#X connect 131 0 129 1;
#X connect 133 0 138 0;
#X connect 134 0 129 0;
#X connect 135 0 134 0;
#X connect 136 0 135 0;
#X connect 137 0 105 0;
#X connect 138 0 131 0;
#X connect 139 0 136 1;
#X connect 141 0 128 0;
#X connect 141 0 128 1;
#X connect 143 0 18 0;
#X connect 144 0 68 0;
#X connect 145 0 90 0;
